<svg xmlns="http://www.w3.org/2000/svg" width="28.862" height="24.754" viewBox="0 0 28.862 24.754">
  <path id="Icon_awesome-shopping-cart" data-name="Icon awesome-shopping-cart" d="M26.463,14.568,28.831,4.512a1.171,1.171,0,0,0-1.173-1.418H7.977L7.518.928A1.193,1.193,0,0,0,6.34,0H1.2A1.182,1.182,0,0,0,0,1.16v.774a1.182,1.182,0,0,0,1.2,1.16H4.7l3.52,16.6a2.691,2.691,0,0,0-1.41,2.348,2.758,2.758,0,0,0,2.806,2.708,2.758,2.758,0,0,0,2.806-2.708,2.653,2.653,0,0,0-.843-1.934h10.5a2.654,2.654,0,0,0-.843,1.934,2.808,2.808,0,0,0,5.612,0,2.7,2.7,0,0,0-1.582-2.437l.276-1.174a1.171,1.171,0,0,0-1.173-1.418H10.929L10.6,15.472H25.29A1.194,1.194,0,0,0,26.463,14.568Z" fill="#fff"/>
</svg>
