<svg xmlns="http://www.w3.org/2000/svg" width="current" height="26.667" viewBox="0 0 40 26.667">
  <path id="amazon_inverse" d="M21.333,11.467V12a4.311,4.311,0,0,1-.4,2.267,1.692,1.692,0,0,1-1.467.933c-.8,0-1.333-.667-1.333-1.6C18.133,11.867,19.733,11.467,21.333,11.467ZM40,3.333v20a3.3,3.3,0,0,1-3.333,3.333H3.333A3.3,3.3,0,0,1,0,23.333v-20A3.3,3.3,0,0,1,3.333,0H36.667A3.3,3.3,0,0,1,40,3.333ZM21.333,9.467v.267a14.21,14.21,0,0,0-4.133.8,3.842,3.842,0,0,0-2.4,3.6A3.185,3.185,0,0,0,18.133,17.6a4.343,4.343,0,0,0,3.6-1.6,9.725,9.725,0,0,0,1.2,1.467.406.406,0,0,0,.533,0A19.947,19.947,0,0,1,25.2,16a.406.406,0,0,0,0-.533,3.055,3.055,0,0,1-.8-2v-3.6c0-1.467.133-2.8-.933-3.733a5,5,0,0,0-3.333-1.067c-2.133,0-4.4.8-4.933,3.333,0,.267.133.4.267.4l2.133.267a.6.6,0,0,0,.4-.4,1.605,1.605,0,0,1,1.733-1.333,1.448,1.448,0,0,1,1.2.533C21.467,8.4,21.333,8.933,21.333,9.467ZM26,18.8a11.962,11.962,0,0,1-5.867,1.467A13.4,13.4,0,0,1,12.4,17.733a.152.152,0,1,0-.133.267A10.282,10.282,0,0,0,20,21.733a9.471,9.471,0,0,0,6.267-2.4C26.533,18.933,26.267,18.533,26,18.8Zm1.733-1.067a3.1,3.1,0,0,0-2.8.267c-.133.133-.133.267,0,.267.533-.133,1.867-.267,2,.133.267.267-.267,1.467-.4,2,0,.133.133.267.267.133A4.206,4.206,0,0,0,27.733,17.733Z" fill="#fff" opacity="0.7"/>
</svg>
