<svg xmlns="http://www.w3.org/2000/svg" width="current" height="26.667" viewBox="0 0 40 26.667">
  <path id="jcb_inverse" d="M36.667,0H3.333A3.3,3.3,0,0,0,0,3.333v20a3.3,3.3,0,0,0,3.333,3.333H36.667A3.3,3.3,0,0,0,40,23.333v-20A3.3,3.3,0,0,0,36.667,0ZM15.733,18.8a2.734,2.734,0,0,1-2.8,2.8h-4V15.733a9.767,9.767,0,0,0,2.8.4c2.667,0,3.467-1.067,3.467-2.267v-3.2H12.8v3.2A1.3,1.3,0,0,1,11.333,15.2a5.433,5.433,0,0,1-2.4-.667v-6.8a2.734,2.734,0,0,1,2.8-2.8h4V18.8Zm7.733.133a2.734,2.734,0,0,1-2.8,2.8H16.533v-6.4a6.207,6.207,0,0,0,3.867.933,6.988,6.988,0,0,0,2.133-.4v-1.2a6.712,6.712,0,0,1-2.133.667c-1.467.133-2.4-.667-2.4-1.867,0-1.333.933-2,2.4-1.867a3.393,3.393,0,0,1,2.133.667V10.8a20.688,20.688,0,0,0-2.133-.4c-2-.133-3.2.267-3.867.933v-3.6a2.734,2.734,0,0,1,2.8-2.8h4.133Zm7.6,0a2.734,2.734,0,0,1-2.8,2.8H24.133V16H28.4c1.067,0,1.733-.533,1.733-1.333s-.667-1.333-1.6-1.333h0a1.426,1.426,0,0,0,1.333-1.2c0-.8-.667-1.2-1.6-1.333H24.133V7.733a2.734,2.734,0,0,1,2.8-2.8h4v14ZM27.2,13.6h.133a.886.886,0,0,1,.533.667.61.61,0,0,1-.533.667H25.6V13.467l1.6.133Zm-1.6-.8V11.467h1.6a.61.61,0,0,1,.533.667.61.61,0,0,1-.533.667H25.6Z" fill="#fff" opacity="0.7"/>
</svg>
